<svg xmlns="http://www.w3.org/2000/svg" width="1440" height="920" viewBox="0 0 1440 920" role="img" aria-labelledby="title desc">
  <title id="title">ともりの家のイメージ</title>
  <desc id="desc">生成りの光に包まれた家の玄関と植栽を描いた、実写真へ差し替えやすい仮ビジュアル</desc>
  <defs>
    <linearGradient id="sky" x1="0" y1="0" x2="1" y2="1">
      <stop offset="0" stop-color="#fbf8ec"/>
      <stop offset=".55" stop-color="#eef4e8"/>
      <stop offset="1" stop-color="#dfe9d8"/>
    </linearGradient>
    <linearGradient id="wall" x1="0" y1="0" x2="1" y2="1">
      <stop offset="0" stop-color="#fff8e5"/>
      <stop offset="1" stop-color="#e8d8b7"/>
    </linearGradient>
    <filter id="soft" x="-20%" y="-20%" width="140%" height="140%">
      <feGaussianBlur stdDeviation="12"/>
    </filter>
  </defs>
  <rect width="1440" height="920" fill="url(#sky)"/>
  <circle cx="1080" cy="230" r="210" fill="#d5a642" opacity=".16" filter="url(#soft)"/>
  <circle cx="250" cy="560" r="260" fill="#8bb58a" opacity=".18" filter="url(#soft)"/>
  <path d="M510 248h640v472H510z" fill="url(#wall)"/>
  <path d="M458 248h750L1120 156H548z" fill="#d9caa6"/>
  <path d="M660 720V326h190v394z" fill="#8f5a31"/>
  <path d="M695 362h120v324H695z" fill="#6f4428" opacity=".42"/>
  <circle cx="820" cy="526" r="8" fill="#d5a642"/>
  <path d="M900 354h190v170H900z" fill="#fffdf5" opacity=".82"/>
  <path d="M926 380h138v118H926z" fill="#dfe9d8"/>
  <path d="M520 720h740v74H480z" fill="#cfc4ab"/>
  <path d="M442 794h850v60H395z" fill="#bdb299"/>
  <g fill="none" stroke="#2d8455" stroke-width="6" stroke-linecap="round">
    <path d="M376 720c24-142 66-264 130-365"/>
    <path d="M456 522c-38-40-76-61-116-64M474 476c48-44 95-67 142-69M428 614c-49-22-91-27-126-15M500 586c42-25 85-35 129-31"/>
    <path d="M1198 740c-16-100-40-177-72-232"/>
    <path d="M1162 623c-42-21-82-28-121-19M1172 580c38-29 78-43 120-43M1214 668c31-15 62-18 94-8"/>
  </g>
  <g fill="#8bb58a" opacity=".82">
    <ellipse cx="338" cy="456" rx="42" ry="18" transform="rotate(24 338 456)"/>
    <ellipse cx="616" cy="407" rx="44" ry="17" transform="rotate(-24 616 407)"/>
    <ellipse cx="302" cy="598" rx="38" ry="16" transform="rotate(-12 302 598)"/>
    <ellipse cx="1042" cy="602" rx="44" ry="17" transform="rotate(12 1042 602)"/>
    <ellipse cx="1290" cy="536" rx="42" ry="17" transform="rotate(-18 1290 536)"/>
  </g>
  <circle cx="594" cy="636" r="24" fill="#d5a642" opacity=".75"/>
  <circle cx="594" cy="636" r="62" fill="#d5a642" opacity=".2" filter="url(#soft)"/>
</svg>
